HIERARCHY
ROOT hip
{
  OFFSET 0.0 0.0 0.0
  CHANNELS 6 Xposition Yposition Zposition Zrotation Yrotation Xrotation
  JOINT abdomen
  {
    OFFSET 0.0 20.6881 -0.73152
    CHANNELS 3 Zrotation Xrotation Yrotation
    JOINT chest
    {
      OFFSET 0.0 11.7043 -0.48768
      CHANNELS 3 Zrotation Xrotation Yrotation
      JOINT neck
      {
        OFFSET 0.0 22.1894 -2.19456
        CHANNELS 3 Zrotation Xrotation Yrotation
        JOINT head
        {
          OFFSET -0.24384 7.07133 1.2192
          CHANNELS 3 Zrotation Xrotation Yrotation
          JOINT leftEye
          {
            OFFSET 4.14528 8.04674 8.04672
            CHANNELS 3 Zrotation Xrotation Yrotation
            End Site
            {
              OFFSET 1.0 0.0 0.0
            }
          }
          JOINT rightEye
          {
            OFFSET -3.6576 8.04674 8.04672
            CHANNELS 3 Zrotation Xrotation Yrotation
            End Site
            {
              OFFSET 1.0 0.0 0.0
            }
          }
        }
      }
      JOINT rCollar
      {
        OFFSET -2.68224 19.2634 -4.8768
        CHANNELS 3 Zrotation Xrotation Yrotation
        JOINT rShldr
        {
          OFFSET -8.77824 -1.95073 1.46304
          CHANNELS 3 Zrotation Xrotation Yrotation
          JOINT rForeArm
          {
            OFFSET -28.1742 -1.7115 0.48768
            CHANNELS 3 Zrotation Xrotation Yrotation
            JOINT rHand
            {
              OFFSET -22.5879 0.773209 7.07136
              CHANNELS 3 Zrotation Xrotation Yrotation
              JOINT rThumb1
              {
                OFFSET -1.2192 -0.487915 3.41376
                CHANNELS 3 Zrotation Xrotation Yrotation
                JOINT rThumb2
                {
                  OFFSET -3.37035 -0.52449 3.41376
                  CHANNELS 3 Zrotation Xrotation Yrotation
                  End Site
                  {
                    OFFSET -1.78271 -1.18214 1.43049
                  }
                }
              }
              JOINT rIndex1
              {
                OFFSET -7.75947 0.938293 5.60832
                CHANNELS 3 Zrotation Xrotation Yrotation
                JOINT rIndex2
                {
                  OFFSET -2.54057 -0.884171 1.56538
                  CHANNELS 3 Zrotation Xrotation Yrotation
                  End Site
                  {
                    OFFSET -1.62519 -0.234802 1.16502
                  }
                }
              }
              JOINT rMid1
              {
                OFFSET -8.24714 1.18213 3.41376
                CHANNELS 3 Zrotation Xrotation Yrotation
                JOINT rMid2
                {
                  OFFSET -3.10165 -0.590103 1.0647
                  CHANNELS 3 Zrotation Xrotation Yrotation
                  End Site
                  {
                    OFFSET -2.48547 -0.328903 0.83742
                  }
                }
              }
              JOINT rRing1
              {
                OFFSET -8.82822 0.546677 1.51678
                CHANNELS 3 Zrotation Xrotation Yrotation
                JOINT rRing2
                {
                  OFFSET -2.60934 -0.819778 -0.0198488
                  CHANNELS 3 Zrotation Xrotation Yrotation
                  End Site
                  {
                    OFFSET -2.33842 -0.294052 0.168128
                  }
                }
              }
              JOINT rPinky1
              {
                OFFSET -8.27202 -0.0477905 -0.4584
                CHANNELS 3 Zrotation Xrotation Yrotation
                JOINT rPinky2
                {
                  OFFSET -1.82734 -0.647385 -0.700984
                  CHANNELS 3 Zrotation Xrotation Yrotation
                  End Site
                  {
                    OFFSET -1.69225 -0.51767 -0.607171
                  }
                }
              }
            }
          }
        }
      }
      JOINT lCollar
      {
        OFFSET 2.68224 19.2634 -4.8768
        CHANNELS 3 Zrotation Xrotation Yrotation
        JOINT lShldr
        {
          OFFSET 8.77824 -1.95073 1.46304
          CHANNELS 3 Zrotation Xrotation Yrotation
          JOINT lForeArm
          {
            OFFSET 28.1742 -1.7115 0.48768
            CHANNELS 3 Zrotation Xrotation Yrotation
            JOINT lHand
            {
              OFFSET 22.5879 0.773209 7.07136
              CHANNELS 3 Zrotation Xrotation Yrotation
              JOINT lThumb1
              {
                OFFSET 1.2192 -0.487915 3.41376
                CHANNELS 3 Zrotation Xrotation Yrotation
                JOINT lThumb2
                {
                  OFFSET 3.37035 -0.52449 3.41376
                  CHANNELS 3 Zrotation Xrotation Yrotation
                  End Site
                  {
                    OFFSET 1.78271 -1.18214 1.43049
                  }
                }
              }
              JOINT lIndex1
              {
                OFFSET 7.75947 0.938293 5.60832
                CHANNELS 3 Zrotation Xrotation Yrotation
                JOINT lIndex2
                {
                  OFFSET 2.54057 -0.884171 1.56538
                  CHANNELS 3 Zrotation Xrotation Yrotation
                  End Site
                  {
                    OFFSET 1.62519 -0.234802 1.16502
                  }
                }
              }
              JOINT lMid1
              {
                OFFSET 8.24714 1.18213 3.41376
                CHANNELS 3 Zrotation Xrotation Yrotation
                JOINT lMid2
                {
                  OFFSET 3.10165 -0.590103 1.0647
                  CHANNELS 3 Zrotation Xrotation Yrotation
                  End Site
                  {
                    OFFSET 2.48547 -0.328903 0.83742
                  }
                }
              }
              JOINT lRing1
              {
                OFFSET 8.82822 0.546677 1.51678
                CHANNELS 3 Zrotation Xrotation Yrotation
                JOINT lRing2
                {
                  OFFSET 2.60934 -0.819778 -0.0198488
                  CHANNELS 3 Zrotation Xrotation Yrotation
                  End Site
                  {
                    OFFSET 2.33842 -0.294052 0.168128
                  }
                }
              }
              JOINT lPinky1
              {
                OFFSET 8.27202 -0.0477905 -0.4584
                CHANNELS 3 Zrotation Xrotation Yrotation
                JOINT lPinky2
                {
                  OFFSET 1.82734 -0.647385 -0.700984
                  CHANNELS 3 Zrotation Xrotation Yrotation
                  End Site
                  {
                    OFFSET 1.69225 -0.51767 -0.607171
                  }
                }
              }
            }
          }
        }
      }
    }
  }
  JOINT rButtock
  {
    OFFSET -8.77824 4.35084 1.2192
    CHANNELS 3 Zrotation Xrotation Yrotation
    JOINT rThigh
    {
      OFFSET 0.0 -1.70687 -2.19456
      CHANNELS 3 Zrotation Xrotation Yrotation
      JOINT rShin
      {
        OFFSET 0.0 -36.8199 0.73152
        CHANNELS 3 Zrotation Xrotation Yrotation
        JOINT rFoot
        {
          OFFSET 0.73152 -45.1104 -5.12064
          CHANNELS 3 Zrotation Xrotation Yrotation
          End Site
          {
            OFFSET -1.1221 -3.69964 12.103
          }
        }
      }
    }
  }
  JOINT lButtock
  {
    OFFSET 8.77824 4.35084 1.2192
    CHANNELS 3 Zrotation Xrotation Yrotation
    JOINT lThigh
    {
      OFFSET 0.0 -1.70687 -2.19456
      CHANNELS 3 Zrotation Xrotation Yrotation
      JOINT lShin
      {
        OFFSET 0.0 -36.8199 0.73152
        CHANNELS 3 Zrotation Xrotation Yrotation
        JOINT lFoot
        {
          OFFSET -0.73152 -45.1104 -5.12064
          CHANNELS 3 Zrotation Xrotation Yrotation
          End Site
          {
            OFFSET 1.1221 -3.69964 12.103
          }
        }
      }
    }
  }
}
MOTION
Frames: 8
Frame Time: 0.00833333
6.80288 81.0039 -55.6489 5.6321 -8.3296 4.3556 -6.28891 3.16227 -33.5967 12.9558 -0.0290295 -9.64747 12.3733 2.105 9.79327 -16.7935 0.57151 16.1359 -0.0 0.0 0.0 -0.0 0.0 0.0 4.70905e-14 7.42084e-14 2.87741e-14 43.6427 -23.8326 -32.9543 -20.9584 -14.267 41.0605 -0.0963015 -8.81685 -1.2491 5.73934e-10 -3.81506e-10 5.11586e-10 9.87146e-10 -6.81135e-10 8.91462e-10 5.73934e-10 -3.81491e-10 5.1157e-10 7.73091 5.47488 0.417314 5.73931e-10 -3.81502e-10 5.11586e-10 2.90554 0.965183 0.102902 5.73942e-10 -3.81505e-10 5.11588e-10 10.2786 0.731801 0.0259123 5.73926e-10 -3.81509e-10 5.11602e-10 2.22167 -0.733487 -0.20892 4.69379e-14 7.41832e-14 2.84759e-14 -47.4009 39.7892 -43.6036 20.5211 -13.6815 -39.9603 0.0314932 -5.05905 0.712875 -8.81262e-10 6.42758e-11 -3.41184e-10 -1.52208e-09 1.04739e-10 -5.94947e-10 -8.81265e-10 6.42742e-11 -3.41181e-10 -7.73091 5.47488 -0.417314 -8.81249e-10 6.42632e-11 -3.41204e-10 -2.90554 0.965183 -0.102902 -8.81261e-10 6.42753e-11 -3.41185e-10 -10.2786 0.731801 -0.0259123 -8.81255e-10 6.4279e-11 -3.41197e-10 -2.22167 -0.733487 0.20892 -2.03217e-16 0.0 -3.88251e-19 -1.09244 -43.2734 8.08688 -0.343149 39.9704 0.712823 -0.700876 2.53383 -1.73037 2.03217e-16 0.0 3.88251e-19 -12.5395 22.3931 6.98569 -0.0664789 3.21372 -0.593504 0.183552 3.3985 8.40153
6.70667 81.1122 -54.7693 5.4942 -8.1468 4.4781 -6.14072 3.0416 -33.7559 12.9417 -0.032693 -9.69632 12.4026 2.1846 9.88533 -16.9588 0.434795 16.3106 -0.0 0.0 0.0 -0.0 0.0 0.0 6.16649e-14 8.78306e-14 -3.55293e-14 43.9895 -23.6977 -33.0946 -20.9623 -14.2723 41.0706 -0.0940427 -8.71514 -1.23446 4.19944e-10 9.04162e-10 -1.15264e-10 7.26934e-10 1.55663e-09 -1.95564e-10 4.19945e-10 9.04178e-10 -1.15279e-10 7.73091 5.47488 0.417314 4.19941e-10 9.04165e-10 -1.15262e-10 2.90554 0.965183 0.102902 4.19951e-10 9.04164e-10 -1.15261e-10 10.2786 0.731801 0.0259123 4.19937e-10 9.04161e-10 -1.15248e-10 2.22167 -0.733487 -0.20892 6.15342e-14 8.78125e-14 -3.5777e-14 -46.7404 40.5043 -44.6752 20.6082 -13.7963 -40.1777 0.0295192 -4.90958 0.691695 -8.4885e-10 6.72231e-10 2.15731e-10 -1.46888e-09 1.1605e-09 3.71234e-10 -8.48854e-10 6.72231e-10 2.15736e-10 -7.73091 5.47488 -0.417314 -8.4884e-10 6.72221e-10 2.15716e-10 -2.90554 0.965183 -0.102902 -8.4885e-10 6.72232e-10 2.15732e-10 -10.2786 0.731801 -0.0259123 -8.48845e-10 6.72235e-10 2.15721e-10 -2.22167 -0.733487 0.20892 -2.03217e-16 0.0 -3.88251e-19 -1.02147 -42.7995 7.9418 -0.345396 40.1825 0.731734 -0.7568 1.85001 -2.10563 2.03217e-16 0.0 3.88251e-19 -12.2736 22.7227 6.66787 -0.0673289 3.01989 -0.586459 -0.0188566 5.06364 7.77753
6.59677 81.2271 -53.8913 5.296 -7.9287 4.599 -5.91387 2.89805 -33.9112 12.8935 -0.0769935 -9.73968 12.4255 2.26842 9.97447 -17.1539 0.337969 16.4871 -0.0 0.0 0.0 -0.0 0.0 0.0 7.01616e-14 7.50973e-14 -1.49589e-13 44.3509 -23.5266 -33.2307 -20.9701 -14.283 41.0906 -0.091264 -8.58703 -1.21603 1.43329e-10 3.19067e-09 -1.24889e-09 2.59842e-10 5.53805e-09 -2.16175e-09 1.43332e-10 3.19069e-09 -1.24891e-09 7.73091 5.47488 0.417314 1.43327e-10 3.19068e-09 -1.24889e-09 2.90554 0.965183 0.102902 1.43336e-10 3.19068e-09 -1.24889e-09 10.2786 0.731801 0.0259123 1.43324e-10 3.19068e-09 -1.24888e-09 2.22167 -0.733487 -0.20892 7.00639e-14 7.509e-14 -1.49756e-13 -46.1103 41.2264 -45.6812 20.7006 -13.9187 -40.4106 0.0265478 -4.66478 0.65704 -6.48447e-10 1.67906e-09 1.16634e-09 -1.12737e-09 2.90993e-09 2.02082e-09 -6.48454e-10 1.67907e-09 1.16634e-09 -7.73091 5.47488 -0.417314 -6.48443e-10 1.67906e-09 1.16633e-09 -2.90554 0.965183 -0.102902 -6.48448e-10 1.67907e-09 1.16634e-09 -10.2786 0.731801 -0.0259123 -6.48444e-10 1.67907e-09 1.16633e-09 -2.22167 -0.733487 0.20892 -2.03217e-16 0.0 -3.88251e-19 -0.900551 -42.2423 7.84164 -0.345176 40.2976 0.75179 -0.827739 1.17343 -2.54793 2.03217e-16 0.0 3.88251e-19 -11.927 23.1371 6.28006 -0.0691167 2.6398 -0.578404 -0.20965 6.92934 7.12321
6.48215 81.3468 -53.0238 5.0622 -7.6801 4.7214 -5.64585 2.76146 -34.0407 12.8348 -0.137845 -9.77299 12.4426 2.34697 10.0554 -17.3569 0.256045 16.6499 -0.0 0.0 0.0 -0.0 0.0 0.0 7.58576e-14 5.33302e-14 -2.57186e-13 44.7189 -23.3565 -33.3396 -20.974 -14.2882 41.1003 -0.0883736 -8.45051 -1.19641 -7.86097e-11 5.47284e-09 -2.35402e-09 -1.12915e-10 9.51109e-09 -4.07831e-09 -7.86046e-11 5.47285e-09 -2.35403e-09 7.73091 5.47488 0.417314 -7.86122e-11 5.47284e-09 -2.35401e-09 2.90554 0.965183 0.102902 -7.86029e-11 5.47284e-09 -2.35402e-09 10.2786 0.731801 0.0259123 -7.86128e-11 5.47284e-09 -2.35401e-09 2.22167 -0.733487 -0.20892 7.57894e-14 5.33334e-14 -2.57277e-13 -45.5015 41.9408 -46.6092 20.8032 -14.056 -40.6692 0.0237404 -4.40716 0.620611 -4.63312e-10 2.66084e-09 2.08238e-09 -8.12157e-10 4.61581e-09 3.61033e-09 -4.63321e-10 2.66085e-09 2.08239e-09 -7.73091 5.47488 -0.417314 -4.63314e-10 2.66084e-09 2.08238e-09 -2.90554 0.965183 -0.102902 -4.63315e-10 2.66085e-09 2.08239e-09 -10.2786 0.731801 -0.0259123 -4.63312e-10 2.66085e-09 2.08238e-09 -2.22167 -0.733487 0.20892 -2.03217e-16 0.0 -3.88251e-19 -0.760864 -41.6519 7.74851 -0.344598 40.3666 0.766288 -0.907453 0.518794 -3.00527 2.03217e-16 0.0 3.88251e-19 -11.4934 23.3223 5.8578 -0.0683584 2.65127 -0.568819 -0.345389 8.69885 6.51407
6.36354 81.4713 -52.1668 4.8153 -7.4126 4.8282 -5.37367 2.66134 -34.122 12.7892 -0.191178 -9.79168 12.4543 2.41073 10.1228 -17.5456 0.164101 16.7837 -0.0 0.0 0.0 -0.0 0.0 0.0 8.20298e-14 3.98515e-14 -3.02103e-13 45.0852 -23.224 -33.3979 -20.966 -14.2773 41.0798 -0.0857343 -8.32361 -1.17819 -6.85728e-11 6.74545e-09 -2.89536e-09 -9.01274e-11 1.17237e-08 -5.01643e-09 -6.8566e-11 6.74547e-09 -2.89537e-09 7.73091 5.47488 0.417314 -6.85751e-11 6.74545e-09 -2.89535e-09 2.90554 0.965183 0.102902 -6.85655e-11 6.74546e-09 -2.89536e-09 10.2786 0.731801 0.0259123 -6.85742e-11 6.74546e-09 -2.89535e-09 2.22167 -0.733487 -0.20892 8.19729e-14 3.98606e-14 -3.02153e-13 -44.9071 42.6332 -47.4443 20.9205 -14.2153 -40.964 0.0218835 -4.21926 0.594063 -4.76705e-10 3.19364e-09 2.53561e-09 -8.37863e-10 5.54093e-09 4.39629e-09 -4.76714e-10 3.19364e-09 2.53562e-09 -7.73091 5.47488 -0.417314 -4.76711e-10 3.19364e-09 2.53562e-09 -2.90554 0.965183 -0.102902 -4.76708e-10 3.19364e-09 2.53562e-09 -10.2786 0.731801 -0.0259123 -4.76705e-10 3.19364e-09 2.53561e-09 -2.22167 -0.733487 0.20892 -2.03217e-16 0.0 -3.88251e-19 -0.632126 -41.0777 7.62521 -0.345812 40.4406 0.768558 -0.986815 -0.099294 -3.42568 2.03217e-16 0.0 3.88251e-19 -10.9774 22.9639 5.44072 -0.0619926 3.63209 -0.557229 -0.404218 10.0733 6.02431
6.25944 81.5993 -51.3139 4.6175 -7.1288 4.9121 -5.09752 2.60863 -34.1569 12.7708 -0.23496 -9.79598 12.4669 2.45266 10.1782 -17.7262 0.0630037 16.8895 -0.0 0.0 0.0 -0.0 0.0 0.0 9.15994e-14 3.20773e-14 -2.4366e-13 45.4355 -23.1522 -33.41 -20.9454 -14.2492 41.0274 -0.0835865 -8.21845 -1.1631 4.15452e-10 6.61131e-09 -2.56479e-09 7.43689e-10 1.14801e-08 -4.4407e-09 4.15459e-10 6.61133e-09 -2.5648e-09 7.73091 5.47488 0.417314 4.15449e-10 6.61132e-09 -2.56478e-09 2.90554 0.965183 0.102902 4.1546e-10 6.61132e-09 -2.56479e-09 10.2786 0.731801 0.0259123 4.15452e-10 6.61132e-09 -2.56478e-09 2.22167 -0.733487 -0.20892 9.15226e-14 3.20855e-14 -2.43719e-13 -44.3497 43.3113 -48.1692 21.0559 -14.4011 -41.3067 0.0205797 -4.06809 0.572726 -8.97398e-10 3.09263e-09 2.29076e-09 -1.5644e-09 5.36302e-09 3.96957e-09 -8.97407e-10 3.09263e-09 2.29077e-09 -7.73091 5.47488 -0.417314 -8.97405e-10 3.09263e-09 2.29076e-09 -2.90554 0.965183 -0.102902 -8.97404e-10 3.09263e-09 2.29076e-09 -10.2786 0.731801 -0.0259123 -8.97397e-10 3.09263e-09 2.29075e-09 -2.22167 -0.733487 0.20892 -2.03217e-16 0.0 -3.88251e-19 -0.507873 -40.5458 7.47702 -0.350103 40.5457 0.753641 -1.06177 -0.675513 -3.8081 2.03217e-16 0.0 3.88251e-19 -10.3649 21.8082 5.00236 -0.0496032 6.03642 -0.542098 -0.38727 10.8748 5.72608
6.15382 81.6005 -50.6247 4.4683 -6.8323 4.9685 -4.80047 2.58629 -34.1545 12.7645 -0.280574 -9.78784 12.4782 2.47937 10.2235 -17.9065 -0.0365181 16.9737 -0.0 0.0 0.0 -0.0 0.0 0.0 1.02136e-13 2.31704e-14 -1.20401e-13 45.778 -23.1168 -33.3849 -20.9158 -14.2087 40.9526 -0.0816649 -8.12298 -1.14941 1.21399e-09 5.64958e-09 -1.70292e-09 2.11617e-09 9.79079e-09 -2.94239e-09 1.214e-09 5.64959e-09 -1.70293e-09 7.73091 5.47488 0.417314 1.21399e-09 5.64957e-09 -1.70291e-09 2.90554 0.965183 0.102902 1.214e-09 5.64958e-09 -1.70291e-09 10.2786 0.731801 0.0259123 1.21399e-09 5.64958e-09 -1.70291e-09 2.22167 -0.733487 -0.20892 1.02019e-13 2.31733e-14 -1.20501e-13 -43.8343 43.9874 -48.7908 21.2047 -14.6072 -41.6893 0.0195212 -3.92798 0.552965 -1.57435e-09 2.60784e-09 1.61657e-09 -2.73198e-09 4.51715e-09 2.797e-09 -1.57436e-09 2.60784e-09 1.61658e-09 -7.73091 5.47488 -0.417314 -1.57436e-09 2.60784e-09 1.61658e-09 -2.90554 0.965183 -0.102902 -1.57436e-09 2.60784e-09 1.61657e-09 -10.2786 0.731801 -0.0259123 -1.57435e-09 2.60784e-09 1.61656e-09 -2.22167 -0.733487 0.20892 -2.03217e-16 0.0 -3.88251e-19 -0.376397 -40.0253 7.31902 -0.35593 40.6504 0.726053 -1.13561 -1.21809 -4.1761 2.03217e-16 0.0 3.88251e-19 -9.68338 20.0778 4.54652 -0.0342673 9.45609 -0.525449 -0.328786 11.2929 5.56148
6.07117 81.6774 -49.8607 4.3593 -6.5225 5.0071 -4.49364 2.58176 -34.1039 12.75 -0.324085 -9.76527 12.4761 2.5018 10.2536 -18.0673 -0.144563 17.0293 -0.0 0.0 0.0 -0.0 0.0 0.0 1.0889e-13 2.40719e-14 5.0496e-15 46.1369 -23.0836 -33.306 -20.876 -14.1547 40.852 -0.0795661 -8.01895 -1.13449 1.90213e-09 4.3196e-09 -7.47576e-10 3.29675e-09 7.46362e-09 -1.28275e-09 1.90214e-09 4.31961e-09 -7.47585e-10 7.73091 5.47488 0.417314 1.90213e-09 4.3196e-09 -7.47572e-10 2.90554 0.965183 0.102902 1.90214e-09 4.3196e-09 -7.47574e-10 10.2786 0.731801 0.0259123 1.90213e-09 4.31961e-09 -7.47567e-10 2.22167 -0.733487 -0.20892 1.08734e-13 2.40686e-14 4.89741e-15 -43.3286 44.6542 -49.3281 21.3599 -14.8248 -42.0929 0.0192141 -3.89239 0.547943 -2.15111e-09 1.96759e-09 8.40859e-10 -3.72562e-09 3.40211e-09 1.44897e-09 -2.15111e-09 1.96759e-09 8.40866e-10 -7.73091 5.47488 -0.417314 -2.15111e-09 1.96758e-09 8.4086e-10 -2.90554 0.965183 -0.102902 -2.15112e-09 1.96758e-09 8.40856e-10 -10.2786 0.731801 -0.0259123 -2.1511e-09 1.96758e-09 8.40848e-10 -2.22167 -0.733487 0.20892 -2.03217e-16 0.0 -3.88251e-19 -0.257266 -39.4804 7.13011 -0.361331 40.7197 0.693417 -1.20796 -1.7329 -4.51466 2.03217e-16 0.0 3.88251e-19 -8.9907 18.1734 4.15329 -0.0173992 13.1754 -0.511763 -0.259647 11.5805 5.40973
